<?xml version="1.0" encoding="UTF-8"?><svg id="Layer_2" xmlns="http://www.w3.org/2000/svg" xmlns:xlink="http://www.w3.org/1999/xlink" viewBox="0 0 48 48"><defs><style>.cls-1{fill:#2062af;}.cls-1,.cls-2,.cls-3,.cls-4,.cls-5,.cls-6,.cls-7,.cls-8,.cls-9,.cls-10{stroke-width:0px;}.cls-2,.cls-10{fill:#000;}.cls-3{fill:url(#Dégradé_sans_nom_4-2);}.cls-4{fill:url(#Dégradé_sans_nom_4);}.cls-5{fill:none;}.cls-6{fill:url(#Dégradé_sans_nom_2-2);}.cls-7{fill:url(#Dégradé_sans_nom_2);}.cls-8{fill:#3c9cd7;}.cls-9{fill:#fff;}.cls-10{isolation:isolate;opacity:.05;}</style><linearGradient id="Dégradé_sans_nom_2" x1="-1980.04" y1="1176.2" x2="-1980.04" y2="1174.65" gradientTransform="translate(9210.59 -5431.15) scale(4.64)" gradientUnits="userSpaceOnUse"><stop offset=".39" stop-color="#d1d3d4" stop-opacity="0"/><stop offset="1" stop-color="#d1d3d4"/></linearGradient><linearGradient id="Dégradé_sans_nom_2-2" x1="-1978.1" y1="1175.43" x2="-1978.1" y2="1173.82" xlink:href="#Dégradé_sans_nom_2"/><linearGradient id="Dégradé_sans_nom_4" x1="-1980.97" y1="1176.9" x2="-1977.25" y2="1176.9" gradientTransform="translate(9210.59 -5431.15) scale(4.64)" gradientUnits="userSpaceOnUse"><stop offset="0" stop-color="#e8e7e5"/><stop offset="1" stop-color="#fff"/></linearGradient><linearGradient id="Dégradé_sans_nom_4-2" x1="-1981.14" y1="1174.21" x2="-1977.1" y2="1174.21" xlink:href="#Dégradé_sans_nom_4"/></defs><g id="logo_set"><g id="css"><path class="cls-5" d="M0,0h48v48H0V0Z"/><path class="cls-1" d="M36.14,41.66l-12.14,3.27-12.14-3.27-2.8-30.35h29.88l-2.8,30.35Z"/><path class="cls-8" d="M24,13.77v28.55h.03s9.82-2.64,9.82-2.64l2.27-25.91h-12.12Z"/><path class="cls-2" d="M17.11,6.85v-1.81h2.64v-1.98h-4.61v5.59h4.61v-1.8h-2.64ZM24.49,5.05h1.84v-1.98h-4.61v1.98c.62.62.94.91,1.83,1.8-.52,0-1.83,0-1.83,0v1.8h4.61v-1.8l-1.84-1.81h0ZM31.02,5.05h1.84v-1.98h-4.61v1.98c.62.62.94.91,1.83,1.8-.52,0-1.83,0-1.83,0v1.8h4.61v-1.8l-1.84-1.81h0Z"/><path class="cls-9" d="M23.99,21.36l-8.69,3.62.29,3.58,8.4-3.59,8.94-3.82.37-3.66-9.31,3.88h0Z"/><path class="cls-7" d="M15.3,24.98l.29,3.58,8.4-3.59v-3.61l-8.69,3.62Z"/><path class="cls-6" d="M33.3,17.48l-9.31,3.88v3.61l8.94-3.82.37-3.66Z"/><path class="cls-4" d="M15.31,24.98l.29,3.58,12.89.04-.29,4.78-4.24,1.19-4.08-1.03-.25-2.96h-3.79l.49,5.72,7.66,2.26,7.62-2.22.99-11.37H15.31Z"/><path class="cls-10" d="M23.99,24.98h-8.69l.29,3.58,8.4.03v-3.61h0ZM23.99,34.56h-.04s-4.08-1.02-4.08-1.02l-.25-2.96h-3.79l.49,5.72,7.66,2.26v-4.01Z"/><path class="cls-3" d="M14.52,17.48h18.78l-.37,3.66H14.97l-.45-3.66h0Z"/><path class="cls-10" d="M23.99,17.48h-9.47l.45,3.66h9.02v-3.66h0Z"/></g></g></svg>